<svg width="2140" height="3840" viewBox="0 0 2140 3840" fill="none" xmlns="http://www.w3.org/2000/svg">
<g clip-path="url(#clip0_173_3718)">
<g clip-path="url(#clip1_173_3718)">
<path opacity="0.2" d="M-142 112.793C-142 50.564 -82.3657 0.114814 -8.79309 0.114814H98.0067V607.342C98.0067 669.571 38.3724 720.02 -35.1773 720.02H-142V112.793ZM3862.38 360.079C3881.42 369.011 3896.55 379.414 3907.94 391.216C3927.57 411.561 3937.38 444.972 3937.38 491.265V536.777C3936.85 580.016 3927.78 614.943 3910.17 641.694C3892.1 669.272 3864.54 689.181 3827.59 701.535C3790.58 713.843 3743.3 719.974 3685.75 719.974H3057.95V113C3057.95 50.7018 3117.65 0.183702 3191.3 0.183702H3685.75C3743.3 0.183702 3790.58 6.33772 3827.59 18.6228C3864.54 30.9768 3892.12 50.8855 3910.17 78.4637C3927.78 105.215 3936.85 140.142 3937.38 183.381V228.893C3937.38 275.163 3927.55 308.573 3907.94 328.941C3896.55 340.744 3881.42 351.123 3862.38 360.079ZM3697.37 536.617V483.435C3697.37 448.417 3663.82 420.035 3622.44 420.035H3297.38V599.994H3622.44C3663.82 599.994 3697.37 571.612 3697.37 536.594V536.617ZM3297.38 300.077H3622.44C3663.82 300.077 3697.37 259.089 3697.37 224.071V183.404C3697.37 148.385 3663.82 120.003 3622.44 120.003H3297.38V300.077ZM2764.58 0.114814H2267.76C2207.43 0.114814 2154.69 34.4212 2139.1 83.6763L1937.97 719.974H2073.61C2133.93 719.974 2186.77 685.668 2202.27 636.413L2251.73 480.013H2364.8C2438.3 480.013 2497.96 429.541 2497.96 367.358V360.079H2289.64L2347.64 176.538C2358.14 143.265 2393.8 120.118 2434.49 120.118H2657.87V607.319C2657.87 669.571 2717.53 720.043 2791.1 720.043H2897.97V112.977C2897.97 50.6558 2838.24 0.137776 2764.58 0.137776V0.114814ZM1378 0.114814H1271.17C1197.62 0.114814 1137.99 50.564 1137.99 112.793V720.02H1704.8C1778.35 720.02 1837.99 669.571 1837.99 607.342V540.038H1378V0.114814ZM258.011 180.097H498.018V720.02H604.818C678.367 720.02 738.001 669.571 738.001 607.342V180.097H844.801C918.351 180.097 977.985 129.648 977.985 67.4186V0.114814H391.172C317.622 0.114814 257.988 50.564 257.988 112.793V180.097H258.011ZM4977.36 539.854V479.99C4977.36 437.28 4972.42 411.286 4962.16 386.165C4951.9 361.066 4936.6 342.489 4916.44 330.113C4896.35 317.827 4871.94 309.722 4843.17 305.91C4814.46 302.006 4776.78 300.054 4730.1 300.054H4393.65C4362.63 300.054 4337.46 278.768 4337.46 252.544V179.936C4337.46 146.824 4369.15 119.98 4408.34 119.98H4650.23C4672.26 119.98 4691.36 124.917 4707.34 134.814C4710.92 136.996 4714.16 139.614 4717.24 142.231L4718.2 143.127C4745.41 166.664 4782.64 179.913 4821.61 179.913H4977.38C4977.38 80.5533 4896.83 0 4797.47 0H4337.44L4277.34 0.0688882C4177.98 0.137776 4097.43 80.6911 4097.43 180.051V252.521C4097.59 294.268 4102.66 309.4 4112.86 333.97C4123.06 359 4138.33 377.737 4158.49 390.022C4178.56 402.307 4202.99 410.413 4231.76 414.225C4260.46 418.198 4298.15 420.081 4344.83 420.081C4344.83 420.081 4546.86 420.012 4666.51 420.012C4705.71 420.012 4737.4 446.832 4737.4 479.967V539.992C4737.4 573.104 4705.71 599.948 4666.51 599.948H4424.56C4402.54 599.948 4383.43 595.011 4367.45 585.114C4363.84 583.024 4360.63 580.384 4357.55 577.697L4356.59 576.87C4329.38 553.333 4292.15 539.992 4253.19 539.992H4097.41C4097.41 639.352 4177.96 719.905 4277.32 719.905H4797.52C4896.88 719.836 4977.43 639.283 4977.43 539.831H4977.36V539.854Z" stroke="white" stroke-width="4" stroke-miterlimit="10"/>
</g>
<g clip-path="url(#clip2_173_3718)">
<path opacity="0.2" d="M-2467 986.836C-2467 924.607 -2407.37 874.158 -2333.79 874.158H-2226.99V1481.38C-2226.99 1543.61 -2286.63 1594.06 -2360.18 1594.06H-2467V986.836ZM1537.38 1234.12C1556.42 1243.05 1571.55 1253.46 1582.94 1265.26C1602.57 1285.6 1612.38 1319.02 1612.38 1365.31V1410.82C1611.85 1454.06 1602.78 1488.99 1585.17 1515.74C1567.1 1543.32 1539.54 1563.22 1502.59 1575.58C1465.58 1587.89 1418.3 1594.02 1360.75 1594.02H732.951V987.043C732.951 924.745 792.654 874.227 866.296 874.227H1360.75C1418.3 874.227 1465.58 880.381 1502.59 892.666C1539.54 905.02 1567.12 924.928 1585.17 952.507C1602.78 979.258 1611.85 1014.18 1612.38 1057.42V1102.94C1612.38 1149.21 1602.55 1182.62 1582.94 1202.98C1571.55 1214.79 1556.42 1225.17 1537.38 1234.12ZM1372.37 1410.66V1357.48C1372.37 1322.46 1338.82 1294.08 1297.44 1294.08H972.384V1474.04H1297.44C1338.82 1474.04 1372.37 1445.65 1372.37 1410.64V1410.66ZM972.384 1174.12H1297.44C1338.82 1174.12 1372.37 1133.13 1372.37 1098.11V1057.45C1372.37 1022.43 1338.82 994.046 1297.44 994.046H972.384V1174.12ZM439.579 874.158H-57.2428C-117.566 874.158 -170.312 908.464 -185.903 957.719L-387.034 1594.02H-251.393C-191.07 1594.02 -138.233 1559.71 -122.733 1510.46L-73.2708 1354.06H39.7978C113.302 1354.06 172.959 1303.58 172.959 1241.4V1234.12H-35.3593L22.6447 1050.58C33.1386 1017.31 68.7997 994.161 109.49 994.161H332.871V1481.36C332.871 1543.61 392.529 1594.09 466.101 1594.09H572.97V987.02C572.97 924.699 513.244 874.181 439.579 874.181V874.158ZM-947.004 874.158H-1053.83C-1127.38 874.158 -1187.01 924.607 -1187.01 986.836V1594.06H-620.198C-546.648 1594.06 -487.014 1543.61 -487.014 1481.38V1414.08H-947.004V874.158ZM-2066.99 1054.14H-1826.98V1594.06H-1720.18C-1646.63 1594.06 -1587 1543.61 -1587 1481.38V1054.14H-1480.2C-1406.65 1054.14 -1347.01 1003.69 -1347.01 941.462V874.158H-1933.83C-2007.38 874.158 -2067.01 924.607 -2067.01 986.836V1054.14H-2066.99ZM2652.36 1413.9V1354.03C2652.36 1311.32 2647.42 1285.33 2637.16 1260.21C2626.9 1235.11 2611.6 1216.53 2591.44 1204.16C2571.35 1191.87 2546.94 1183.76 2518.17 1179.95C2489.46 1176.05 2451.78 1174.1 2405.1 1174.1H2068.65C2037.63 1174.1 2012.46 1152.81 2012.46 1126.59V1053.98C2012.46 1020.87 2044.15 994.023 2083.34 994.023H2325.23C2347.26 994.023 2366.36 998.96 2382.34 1008.86C2385.92 1011.04 2389.16 1013.66 2392.24 1016.27L2393.2 1017.17C2420.41 1040.71 2457.64 1053.96 2496.61 1053.96H2652.38C2652.38 954.596 2571.83 874.043 2472.47 874.043H2012.44L1952.34 874.112C1852.98 874.181 1772.43 954.734 1772.43 1054.09V1126.56C1772.59 1168.31 1777.66 1183.44 1787.86 1208.01C1798.06 1233.04 1813.33 1251.78 1833.49 1264.07C1853.56 1276.35 1877.99 1284.46 1906.76 1288.27C1935.46 1292.24 1973.15 1294.12 2019.83 1294.12C2019.83 1294.12 2221.86 1294.05 2341.51 1294.05C2380.71 1294.05 2412.4 1320.88 2412.4 1354.01V1414.04C2412.4 1447.15 2380.71 1473.99 2341.51 1473.99H2099.56C2077.54 1473.99 2058.43 1469.05 2042.45 1459.16C2038.84 1457.07 2035.63 1454.43 2032.55 1451.74L2031.59 1450.91C2004.38 1427.38 1967.15 1414.04 1928.19 1414.04H1772.41C1772.41 1513.39 1852.96 1593.95 1952.32 1593.95H2472.52C2571.88 1593.88 2652.43 1513.33 2652.43 1413.87H2652.36V1413.9Z" stroke="white" stroke-width="4" stroke-miterlimit="10"/>
</g>
<g clip-path="url(#clip3_173_3718)">
<path opacity="0.2" d="M-142 1860.88C-142 1798.65 -82.3657 1748.2 -8.79309 1748.2H98.0067V2355.43C98.0067 2417.66 38.3724 2468.11 -35.1773 2468.11H-142V1860.88ZM3862.38 2108.16C3881.42 2117.1 3896.55 2127.5 3907.94 2139.3C3927.57 2159.65 3937.38 2193.06 3937.38 2239.35V2284.86C3936.85 2328.1 3927.78 2363.03 3910.17 2389.78C3892.1 2417.36 3864.54 2437.27 3827.59 2449.62C3790.58 2461.93 3743.3 2468.06 3685.75 2468.06H3057.95V1861.09C3057.95 1798.79 3117.65 1748.27 3191.3 1748.27H3685.75C3743.3 1748.27 3790.58 1754.42 3827.59 1766.71C3864.54 1779.06 3892.12 1798.97 3910.17 1826.55C3927.78 1853.3 3936.85 1888.23 3937.38 1931.47V1976.98C3937.38 2023.25 3927.55 2056.66 3907.94 2077.03C3896.55 2088.83 3881.42 2099.21 3862.38 2108.16ZM3697.37 2284.7V2231.52C3697.37 2196.5 3663.82 2168.12 3622.44 2168.12H3297.38V2348.08H3622.44C3663.82 2348.08 3697.37 2319.7 3697.37 2284.68V2284.7ZM3297.38 2048.16H3622.44C3663.82 2048.16 3697.37 2007.17 3697.37 1972.16V1931.49C3697.37 1896.47 3663.82 1868.09 3622.44 1868.09H3297.38V2048.16ZM2764.58 1748.2H2267.76C2207.43 1748.2 2154.69 1782.51 2139.1 1831.76L1937.97 2468.06H2073.61C2133.93 2468.06 2186.77 2433.75 2202.27 2384.5L2251.73 2228.1H2364.8C2438.3 2228.1 2497.96 2177.63 2497.96 2115.44V2108.16H2289.64L2347.64 1924.62C2358.14 1891.35 2393.8 1868.2 2434.49 1868.2H2657.87V2355.4C2657.87 2417.66 2717.53 2468.13 2791.1 2468.13H2897.97V1861.06C2897.97 1798.74 2838.24 1748.22 2764.58 1748.22V1748.2ZM1378 1748.2H1271.17C1197.62 1748.2 1137.99 1798.65 1137.99 1860.88V2468.11H1704.8C1778.35 2468.11 1837.99 2417.66 1837.99 2355.43V2288.12H1378V1748.2ZM258.011 1928.18H498.018V2468.11H604.818C678.367 2468.11 738.001 2417.66 738.001 2355.43V1928.18H844.801C918.351 1928.18 977.985 1877.73 977.985 1815.5V1748.2H391.172C317.622 1748.2 257.988 1798.65 257.988 1860.88V1928.18H258.011ZM4977.36 2287.94V2228.08C4977.36 2185.37 4972.42 2159.37 4962.16 2134.25C4951.9 2109.15 4936.6 2090.58 4916.44 2078.2C4896.35 2065.91 4871.94 2057.81 4843.17 2054C4814.46 2050.09 4776.78 2048.14 4730.1 2048.14H4393.65C4362.63 2048.14 4337.46 2026.85 4337.46 2000.63V1928.02C4337.46 1894.91 4369.15 1868.07 4408.34 1868.07H4650.23C4672.26 1868.07 4691.36 1873 4707.34 1882.9C4710.92 1885.08 4714.16 1887.7 4717.24 1890.32L4718.2 1891.21C4745.41 1914.75 4782.64 1928 4821.61 1928H4977.38C4977.38 1828.64 4896.83 1748.09 4797.47 1748.09H4337.44L4277.34 1748.15C4177.98 1748.22 4097.43 1828.78 4097.43 1928.14V2000.61C4097.59 2042.35 4102.66 2057.49 4112.86 2082.06C4123.06 2107.09 4138.33 2125.82 4158.49 2138.11C4178.56 2150.39 4202.99 2158.5 4231.76 2162.31C4260.46 2166.28 4298.15 2168.17 4344.83 2168.17C4344.83 2168.17 4546.86 2168.1 4666.51 2168.1C4705.71 2168.1 4737.4 2194.92 4737.4 2228.05V2288.08C4737.4 2321.19 4705.71 2348.03 4666.51 2348.03H4424.56C4402.54 2348.03 4383.43 2343.1 4367.45 2333.2C4363.84 2331.11 4360.63 2328.47 4357.55 2325.78L4356.59 2324.96C4329.38 2301.42 4292.15 2288.08 4253.19 2288.08H4097.41C4097.41 2387.44 4177.96 2467.99 4277.32 2467.99H4797.52C4896.88 2467.92 4977.43 2387.37 4977.43 2287.92H4977.36V2287.94Z" stroke="white" stroke-width="4" stroke-miterlimit="10"/>
</g>
<g clip-path="url(#clip4_173_3718)">
<path opacity="0.2" d="M-2467 2734.92C-2467 2672.69 -2407.37 2622.24 -2333.79 2622.24H-2226.99V3229.47C-2226.99 3291.7 -2286.63 3342.15 -2360.18 3342.15H-2467V2734.92ZM1537.38 2982.21C1556.42 2991.14 1571.55 3001.54 1582.94 3013.35C1602.57 3033.69 1612.38 3067.1 1612.38 3113.39V3158.91C1611.85 3202.15 1602.78 3237.07 1585.17 3263.82C1567.1 3291.4 1539.54 3311.31 1502.59 3323.66C1465.58 3335.97 1418.3 3342.1 1360.75 3342.1H732.951V2735.13C732.951 2672.83 792.654 2622.31 866.296 2622.31H1360.75C1418.3 2622.31 1465.58 2628.47 1502.59 2640.75C1539.54 2653.11 1567.12 2673.01 1585.17 2700.59C1602.78 2727.34 1611.85 2762.27 1612.38 2805.51V2851.02C1612.38 2897.29 1602.55 2930.7 1582.94 2951.07C1571.55 2962.87 1556.42 2973.25 1537.38 2982.21ZM1372.37 3158.75V3105.56C1372.37 3070.55 1338.82 3042.16 1297.44 3042.16H972.384V3222.12H1297.44C1338.82 3222.12 1372.37 3193.74 1372.37 3158.72V3158.75ZM972.384 2922.21H1297.44C1338.82 2922.21 1372.37 2881.22 1372.37 2846.2V2805.53C1372.37 2770.51 1338.82 2742.13 1297.44 2742.13H972.384V2922.21ZM439.579 2622.24H-57.2428C-117.566 2622.24 -170.312 2656.55 -185.903 2705.81L-387.034 3342.1H-251.393C-191.07 3342.1 -138.233 3307.8 -122.733 3258.54L-73.2708 3102.14H39.7978C113.302 3102.14 172.959 3051.67 172.959 2989.49V2982.21H-35.3593L22.6447 2798.67C33.1386 2765.39 68.7997 2742.25 109.49 2742.25H332.871V3229.45C332.871 3291.7 392.529 3342.17 466.101 3342.17H572.97V2735.11C572.97 2672.78 513.244 2622.27 439.579 2622.27V2622.24ZM-947.004 2622.24H-1053.83C-1127.38 2622.24 -1187.01 2672.69 -1187.01 2734.92V3342.15H-620.198C-546.648 3342.15 -487.014 3291.7 -487.014 3229.47V3162.17H-947.004V2622.24ZM-2066.99 2802.23H-1826.98V3342.15H-1720.18C-1646.63 3342.15 -1587 3291.7 -1587 3229.47V2802.23H-1480.2C-1406.65 2802.23 -1347.01 2751.78 -1347.01 2689.55V2622.24H-1933.83C-2007.38 2622.24 -2067.01 2672.69 -2067.01 2734.92V2802.23H-2066.99ZM2652.36 3161.98V3102.12C2652.36 3059.41 2647.42 3033.41 2637.16 3008.29C2626.9 2983.2 2611.6 2964.62 2591.44 2952.24C2571.35 2939.96 2546.94 2931.85 2518.17 2928.04C2489.46 2924.14 2451.78 2922.18 2405.1 2922.18H2068.65C2037.63 2922.18 2012.46 2900.9 2012.46 2874.67V2802.07C2012.46 2768.95 2044.15 2742.11 2083.34 2742.11H2325.23C2347.26 2742.11 2366.36 2747.05 2382.34 2756.94C2385.92 2759.12 2389.16 2761.74 2392.24 2764.36L2393.2 2765.26C2420.41 2788.79 2457.64 2802.04 2496.61 2802.04H2652.38C2652.38 2702.68 2571.83 2622.13 2472.47 2622.13H2012.44L1952.34 2622.2C1852.98 2622.27 1772.43 2702.82 1772.43 2802.18V2874.65C1772.59 2916.4 1777.66 2931.53 1787.86 2956.1C1798.06 2981.13 1813.33 2999.87 1833.49 3012.15C1853.56 3024.44 1877.99 3032.54 1906.76 3036.35C1935.46 3040.33 1973.15 3042.21 2019.83 3042.21C2019.83 3042.21 2221.86 3042.14 2341.51 3042.14C2380.71 3042.14 2412.4 3068.96 2412.4 3102.1V3162.12C2412.4 3195.23 2380.71 3222.08 2341.51 3222.08H2099.56C2077.54 3222.08 2058.43 3217.14 2042.45 3207.24C2038.84 3205.15 2035.63 3202.51 2032.55 3199.83L2031.59 3199C2004.38 3175.46 1967.15 3162.12 1928.19 3162.12H1772.41C1772.41 3261.48 1852.96 3342.03 1952.32 3342.03H2472.52C2571.88 3341.97 2652.43 3261.41 2652.43 3161.96H2652.36V3161.98Z" stroke="white" stroke-width="4" stroke-miterlimit="10"/>
</g>
<g clip-path="url(#clip5_173_3718)">
<path opacity="0.2" d="M-142 3608.97C-142 3546.74 -82.3657 3496.29 -8.79309 3496.29H98.0067V4103.51C98.0067 4165.74 38.3724 4216.19 -35.1773 4216.19H-142V3608.97ZM3862.38 3856.25C3881.42 3865.18 3896.55 3875.59 3907.94 3887.39C3927.57 3907.73 3937.38 3941.14 3937.38 3987.44V4032.95C3936.85 4076.19 3927.78 4111.11 3910.17 4137.87C3892.1 4165.44 3864.54 4185.35 3827.59 4197.71C3790.58 4210.02 3743.3 4216.15 3685.75 4216.15H3057.95V3609.17C3057.95 3546.87 3117.65 3496.36 3191.3 3496.36H3685.75C3743.3 3496.36 3790.58 3502.51 3827.59 3514.79C3864.54 3527.15 3892.12 3547.06 3910.17 3574.64C3927.78 3601.39 3936.85 3636.31 3937.38 3679.55V3725.06C3937.38 3771.33 3927.55 3804.75 3907.94 3825.11C3896.55 3836.92 3881.42 3847.3 3862.38 3856.25ZM3697.37 4032.79V3979.61C3697.37 3944.59 3663.82 3916.21 3622.44 3916.21H3297.38V4096.17H3622.44C3663.82 4096.17 3697.37 4067.78 3697.37 4032.77V4032.79ZM3297.38 3796.25H3622.44C3663.82 3796.25 3697.37 3755.26 3697.37 3720.24V3679.58C3697.37 3644.56 3663.82 3616.18 3622.44 3616.18H3297.38V3796.25ZM2764.58 3496.29H2267.76C2207.43 3496.29 2154.69 3530.59 2139.1 3579.85L1937.97 4216.15H2073.61C2133.93 4216.15 2186.77 4181.84 2202.27 4132.58L2251.73 3976.19H2364.8C2438.3 3976.19 2497.96 3925.71 2497.96 3863.53V3856.25H2289.64L2347.64 3672.71C2358.14 3639.44 2393.8 3616.29 2434.49 3616.29H2657.87V4103.49C2657.87 4165.74 2717.53 4216.22 2791.1 4216.22H2897.97V3609.15C2897.97 3546.83 2838.24 3496.31 2764.58 3496.31V3496.29ZM1378 3496.29H1271.17C1197.62 3496.29 1137.99 3546.74 1137.99 3608.97V4216.19H1704.8C1778.35 4216.19 1837.99 4165.74 1837.99 4103.51V4036.21H1378V3496.29ZM258.011 3676.27H498.018V4216.19H604.818C678.367 4216.19 738.001 4165.74 738.001 4103.51V3676.27H844.801C918.351 3676.27 977.985 3625.82 977.985 3563.59V3496.29H391.172C317.622 3496.29 257.988 3546.74 257.988 3608.97V3676.27H258.011ZM4977.36 4036.03V3976.16C4977.36 3933.45 4972.42 3907.46 4962.16 3882.34C4951.9 3857.24 4936.6 3838.66 4916.44 3826.28C4896.35 3814 4871.94 3805.89 4843.17 3802.08C4814.46 3798.18 4776.78 3796.23 4730.1 3796.23H4393.65C4362.63 3796.23 4337.46 3774.94 4337.46 3748.72V3676.11C4337.46 3643 4369.15 3616.15 4408.34 3616.15H4650.23C4672.26 3616.15 4691.36 3621.09 4707.34 3630.99C4710.92 3633.17 4714.16 3635.79 4717.24 3638.4L4718.2 3639.3C4745.41 3662.84 4782.64 3676.09 4821.61 3676.09H4977.38C4977.38 3576.73 4896.83 3496.17 4797.47 3496.17H4337.44L4277.34 3496.24C4177.98 3496.31 4097.43 3576.86 4097.43 3676.22V3748.69C4097.59 3790.44 4102.66 3805.57 4112.86 3830.14C4123.06 3855.17 4138.33 3873.91 4158.49 3886.19C4178.56 3898.48 4202.99 3906.59 4231.76 3910.4C4260.46 3914.37 4298.15 3916.25 4344.83 3916.25C4344.83 3916.25 4546.86 3916.18 4666.51 3916.18C4705.71 3916.18 4737.4 3943 4737.4 3976.14V4036.16C4737.4 4069.28 4705.71 4096.12 4666.51 4096.12H4424.56C4402.54 4096.12 4383.43 4091.18 4367.45 4081.29C4363.84 4079.2 4360.63 4076.56 4357.55 4073.87L4356.59 4073.04C4329.38 4049.51 4292.15 4036.16 4253.19 4036.16H4097.41C4097.41 4135.52 4177.96 4216.08 4277.32 4216.08H4797.52C4896.88 4216.01 4977.43 4135.46 4977.43 4036H4977.36V4036.03Z" stroke="white" stroke-width="4" stroke-miterlimit="10"/>
</g>
</g>
<defs>
<clipPath id="clip0_173_3718">
<rect width="2140" height="3840" fill="white"/>
</clipPath>
<clipPath id="clip1_173_3718">
<rect width="20939.7" height="720.043" fill="white" transform="translate(-142)"/>
</clipPath>
<clipPath id="clip2_173_3718">
<rect width="20939.7" height="720.043" fill="white" transform="translate(-2467 874.043)"/>
</clipPath>
<clipPath id="clip3_173_3718">
<rect width="20939.7" height="720.043" fill="white" transform="translate(-142 1748.09)"/>
</clipPath>
<clipPath id="clip4_173_3718">
<rect width="20939.7" height="720.043" fill="white" transform="translate(-2467 2622.13)"/>
</clipPath>
<clipPath id="clip5_173_3718">
<rect width="20939.7" height="720.043" fill="white" transform="translate(-142 3496.17)"/>
</clipPath>
</defs>
</svg>
