<svg width="64" height="64" viewBox="0 0 64 64" fill="none" xmlns="http://www.w3.org/2000/svg">
<path d="M6.54548 29.5307H51.3103L37.8371 16.2982C37.5939 16.0676 37.4 15.7917 37.2666 15.4867C37.1332 15.1817 37.063 14.8537 37.06 14.5217C37.0571 14.1898 37.1215 13.8606 37.2495 13.5533C37.3775 13.2461 37.5665 12.967 37.8055 12.7322C38.0445 12.4975 38.3287 12.3119 38.6415 12.1862C38.9544 12.0605 39.2896 11.9972 39.6275 12.0001C39.9655 12.003 40.2996 12.0719 40.6101 12.203C40.9207 12.334 41.2015 12.5244 41.4364 12.7632L59.2547 30.2632C59.7319 30.732 60 31.3678 60 32.0307C60 32.6936 59.7319 33.3294 59.2547 33.7982L41.4364 51.2982C40.9563 51.7536 40.3133 52.0056 39.6459 51.9999C38.9785 51.9942 38.34 51.7313 37.8681 51.2678C37.3961 50.8042 37.1284 50.1772 37.1226 49.5217C37.1168 48.8662 37.3734 48.2347 37.8371 47.7632L51.3103 34.5307H6.54548C5.87038 34.5307 5.22292 34.2673 4.74555 33.7985C4.26818 33.3296 4 32.6938 4 32.0307C4 31.3677 4.26818 30.7318 4.74555 30.263C5.22292 29.7941 5.87038 29.5307 6.54548 29.5307Z" fill="#8696A9"/>
</svg>
