<svg width="256" height="256" viewBox="0 0 256 256" fill="none" xmlns="http://www.w3.org/2000/svg">
<path d="M128 240C189.856 240 240 189.856 240 128C240 66.1441 189.856 16 128 16C66.1441 16 16 66.1441 16 128C16 189.856 66.1441 240 128 240Z" fill="#FF4144"/>
<path d="M128.001 150.4C123.945 150.4 120.046 148.83 117.122 146.02C114.197 143.209 112.474 139.376 112.312 135.324L110.243 83.0688C110.16 80.9565 110.504 78.8493 111.255 76.8734C112.006 74.8974 113.148 73.0935 114.613 71.5696C116.078 70.0458 117.836 68.8334 119.781 68.0053C121.725 67.1771 123.817 66.7501 125.931 66.75H130.07C132.184 66.7501 134.276 67.1771 136.221 68.0053C138.166 68.8334 139.923 70.0458 141.388 71.5696C142.853 73.0935 143.996 74.8974 144.747 76.8734C145.498 78.8493 145.842 80.9565 145.759 83.0688L143.689 135.324C143.528 139.376 141.804 143.209 138.88 146.02C135.955 148.83 132.057 150.4 128.001 150.4Z" fill="white"/>
<path d="M143.675 173.574C143.675 164.917 136.657 157.899 128 157.899C119.342 157.899 112.324 164.917 112.324 173.574C112.324 182.232 119.342 189.25 128 189.25C136.657 189.25 143.675 182.232 143.675 173.574Z" fill="white"/>
</svg>
