<svg width="201" height="200" viewBox="0 0 201 200" fill="none" xmlns="http://www.w3.org/2000/svg">
<path d="M42.5312 101.687C48.5781 134.656 75.75 159.5 108.359 159.5C145.422 159.5 173.359 127.344 175.469 87.8124C177.031 58.3749 160.703 29.2186 124.578 12.9999C108.721 5.93934 91.024 4.12206 74.0625 7.81239C108.797 -1.59386 138.953 7.84364 159.375 24.4686C172.188 34.5624 184.562 48.4218 189.562 62.5936C193.08 72.5758 195.066 83.0327 195.453 93.6093C195.453 147.359 153.469 190.953 99.7344 190.953C76.6751 190.962 54.3621 182.781 36.7739 167.868C19.1857 152.956 7.46548 132.281 3.70312 109.531C4.59375 84.8124 34.6875 81.0468 42.5 101.687H42.5312Z" fill="#26AFF0"/>
</svg>
