<svg width="64" height="64" viewBox="0 0 64 64" fill="none" xmlns="http://www.w3.org/2000/svg">
<path d="M17.0107 54.037L39.0476 32L17.0107 9.963C16.3605 9.30492 15.9972 8.41632 16 7.49125C16.0028 6.56618 16.3716 5.6798 17.0257 5.02568C17.6798 4.37155 18.5662 4.00282 19.4912 4.00002C20.4163 3.99721 21.3049 4.36055 21.963 5.01069L46.4762 29.5238C47.1329 30.1806 47.5018 31.0713 47.5018 32C47.5018 32.9287 47.1329 33.8194 46.4762 34.4762L21.963 58.9893C21.3049 59.6395 20.4163 60.0028 19.4912 60C18.5662 59.9972 17.6798 59.6285 17.0257 58.9743C16.3716 58.3202 16.0028 57.4338 16 56.5088C15.9972 55.5837 16.3605 54.6951 17.0107 54.037Z" fill="#26AFF0"/>
</svg>
