<svg width="64" height="64" viewBox="0 0 64 64" fill="none" xmlns="http://www.w3.org/2000/svg">
<path d="M56.5 28.5C55.5717 28.5 54.6815 28.8687 54.0251 29.5251C53.3688 30.1815 53 31.0717 53 32C53 43.5798 43.5798 53 32 53C20.4202 53 11 43.5798 11 32C11 20.4202 20.4202 11 32 11C37.1502 11 42.038 12.8988 45.8478 16.25H41.128C40.1997 16.25 39.3095 16.6187 38.6531 17.2751C37.9967 17.9315 37.628 18.8217 37.628 19.75C37.628 20.6783 37.9967 21.5685 38.6531 22.2249C39.3095 22.8813 40.1997 23.25 41.128 23.25H53.3027C54.231 23.25 55.1212 22.8813 55.7776 22.2249C56.434 21.5685 56.8027 20.6783 56.8027 19.75V7.577C56.8027 6.64874 56.434 5.7585 55.7776 5.10213C55.1212 4.44575 54.231 4.077 53.3027 4.077C52.3745 4.077 51.4843 4.44575 50.8279 5.10213C50.1715 5.7585 49.8027 6.64874 49.8027 7.577V10.4348C44.7996 6.28083 38.5028 4.00485 32 4C16.5615 4 4 16.5615 4 32C4 47.4385 16.5615 60 32 60C47.4385 60 60 47.4385 60 32C60 31.0717 59.6312 30.1815 58.9749 29.5251C58.3185 28.8687 57.4283 28.5 56.5 28.5Z" fill="#26AFF0"/>
</svg>
