<svg width="64" height="64" viewBox="0 0 64 64" fill="none" xmlns="http://www.w3.org/2000/svg">
<rect width="64" height="64" rx="32" fill="white"/>
<path d="M45.3929 19.5704C45.6087 19.3502 45.8662 19.1753 46.1504 19.0559C46.4347 18.9365 46.7399 18.875 47.0482 18.875C47.3565 18.875 47.6617 18.9365 47.9459 19.0559C48.2301 19.1753 48.4877 19.3502 48.7035 19.5704C49.6078 20.4842 49.6205 21.9609 48.7351 22.8905L30.0383 44.9928C29.826 45.2259 29.5684 45.4133 29.2812 45.5434C28.994 45.6735 28.6833 45.7437 28.3681 45.7496C28.0529 45.7555 27.7398 45.6971 27.4479 45.5778C27.1561 45.4586 26.8916 45.281 26.6707 45.056L15.2939 33.5274C14.8552 33.08 14.6094 32.4783 14.6094 31.8516C14.6094 31.2249 14.8552 30.6232 15.2939 30.1757C15.5097 29.9556 15.7673 29.7806 16.0515 29.6612C16.3357 29.5418 16.6409 29.4803 16.9492 29.4803C17.2575 29.4803 17.5627 29.5418 17.8469 29.6612C18.1312 29.7806 18.3887 29.9556 18.6045 30.1757L28.2549 39.9558L45.3296 19.64C45.3493 19.6156 45.3704 19.5923 45.3929 19.5704Z" fill="#26AFF0"/>
</svg>
